<?xml version="1.0" standalone="no"?>
<!DOCTYPE svg PUBLIC "-//W3C//DTD SVG 20010904//EN"
 "http://www.w3.org/TR/2001/REC-SVG-20010904/DTD/svg10.dtd">
<svg version="1.0" xmlns="http://www.w3.org/2000/svg"
 width="720.000000pt" height="720.000000pt" viewBox="0 0 720.000000 720.000000"
 preserveAspectRatio="xMidYMid meet">
<metadata>
Created by potrace 1.11, written by Peter Selinger 2001-2013
</metadata>
<g transform="translate(0.000000,720.000000) scale(0.100000,-0.100000)"
fill="#000000" stroke="none">
<path d="M3368 7195 c-2 -2 -40 -6 -84 -9 -45 -3 -99 -8 -120 -11 -104 -15
-293 -47 -324 -55 -19 -5 -82 -21 -140 -36 -333 -83 -658 -221 -988 -419 -113
-68 -319 -218 -432 -316 -41 -35 -86 -73 -98 -84 -64 -54 -306 -306 -350 -364
-6 -9 -40 -52 -75 -96 -78 -99 -177 -241 -177 -254 0 -5 -4 -11 -8 -13 -25
-10 -200 -334 -272 -503 -23 -55 -49 -114 -57 -132 -19 -44 -114 -332 -119
-363 -3 -14 -11 -50 -19 -80 -16 -63 -43 -188 -52 -240 -3 -19 -7 -42 -8 -50
-2 -8 -6 -40 -10 -70 -4 -30 -9 -66 -11 -80 -18 -116 -25 -585 -11 -740 9 -94
17 -162 23 -188 3 -13 7 -43 10 -65 9 -69 54 -276 80 -372 140 -509 397 -994
737 -1390 125 -145 330 -348 432 -426 17 -13 35 -29 40 -35 38 -42 331 -244
479 -329 293 -168 723 -336 976 -381 14 -3 39 -9 55 -14 17 -5 48 -11 69 -15
21 -3 48 -7 60 -10 35 -8 78 -15 126 -21 25 -3 61 -7 80 -10 107 -14 188 -17
410 -18 245 0 330 4 470 24 132 18 145 20 170 25 14 3 39 8 55 11 17 3 35 7
40 8 6 2 28 6 50 11 128 24 388 104 555 170 107 42 417 192 482 234 24 15 75
47 113 71 68 43 260 178 300 211 254 210 403 358 582 579 191 235 379 546 497
825 21 50 44 104 52 121 76 174 184 589 209 804 3 30 8 62 10 70 11 42 19 229
20 435 0 255 -8 358 -41 560 -8 50 -17 103 -18 118 -2 15 -8 47 -14 70 -6 23
-18 69 -26 102 -27 109 -46 179 -68 245 -12 36 -23 67 -23 70 -1 3 -5 14 -9
25 -5 11 -25 65 -47 120 -21 55 -56 140 -79 188 -22 48 -41 90 -42 94 -1 5
-14 30 -30 56 -15 26 -28 50 -28 52 0 23 -209 345 -308 475 -609 799 -1537
1314 -2532 1407 -59 5 -557 12 -562 8z"/>
</g>
</svg>
